<svg width="400" height="400" viewBox="0 0 400 400" fill="none" xmlns="http://www.w3.org/2000/svg">
<path fill-rule="evenodd" clip-rule="evenodd" d="M245.438 138.811C255.987 136.689 264.623 132.343 272.478 127.467C262.575 143.347 254.944 157.444 246.485 175.454C222.799 114.652 212.422 71.8636 206.113 0L189.492 0.252083C188.498 17.587 187.265 33.6707 185.327 49.6454C185.123 49.6465 184.904 49.6488 184.671 49.6526C183.142 49.6771 180.978 49.7643 178.278 50.0077C172.883 50.4941 165.326 51.6065 156.421 54.102C138.584 59.1006 115.347 69.6516 93.3649 91.7555C71.7666 113.474 61.2189 132.665 56.1233 146.831C53.5813 153.898 52.4167 159.658 51.8985 163.786C51.6397 165.848 51.5428 167.498 51.5151 168.695C51.5013 169.294 51.5047 169.779 51.5139 170.146C51.5184 170.329 51.5244 170.483 51.5304 170.606L51.5391 170.768L51.5431 170.832L51.5449 170.86L51.5458 170.873C51.5462 170.879 51.5467 170.885 59.8589 170.294C68.1711 169.704 68.1715 169.71 68.1719 169.715L68.1726 169.726L68.1739 169.745L68.1758 169.775L68.1768 169.789L68.175 169.73C68.1724 169.625 68.1695 169.407 68.177 169.081C68.1921 168.429 68.2491 167.344 68.4351 165.862C68.8065 162.903 69.6947 158.342 71.8058 152.473C75.4365 142.379 82.7465 128.245 97.5163 111.647C100.385 116.384 103.336 120.752 106.081 124.816C107.482 126.89 108.83 128.887 110.086 130.811C115.653 139.34 119.881 147.076 121.756 156.507L138.102 153.255C135.99 142.634 131.654 133.941 126.789 126.025C142.591 135.985 156.626 143.663 174.573 152.182C114.05 176.031 71.5007 186.472 0 192.82L0.254805 209.441C19.0679 210.531 36.3977 211.908 53.7215 214.18C53.7221 214.223 53.7227 214.267 53.7234 214.311C53.7478 215.845 53.8344 218.018 54.0761 220.729C54.5592 226.147 55.6641 233.739 58.1437 242.686C63.1095 260.603 73.5946 283.96 95.5745 306.063C117.173 327.781 136.263 338.394 150.367 343.523C157.402 346.082 163.139 347.256 167.254 347.778C169.309 348.039 170.955 348.136 172.15 348.164C172.747 348.178 173.232 348.175 173.599 348.166C173.711 348.163 173.812 348.159 173.901 348.156C173.959 348.154 174.012 348.151 174.06 348.149L174.223 348.14L174.287 348.136L174.315 348.134L174.328 348.133C174.334 348.133 174.34 348.132 173.743 339.82C173.146 331.508 173.152 331.507 173.158 331.507L173.169 331.506L173.188 331.505L173.219 331.503L173.233 331.502L173.179 331.504C173.076 331.506 172.862 331.509 172.54 331.502C171.896 331.486 170.821 331.429 169.352 331.243C166.419 330.871 161.892 329.98 156.063 327.86C146.022 324.208 131.942 316.843 115.399 301.941C120.143 299.039 124.515 296.053 128.58 293.277C130.642 291.868 132.626 290.514 134.539 289.251C143.021 283.654 150.702 279.411 160.058 277.53L156.772 261.189C146.224 263.311 137.588 267.657 129.733 272.533C139.635 256.653 147.267 242.556 155.726 224.546C179.411 285.348 189.788 328.136 196.098 400L212.719 399.748C213.713 382.402 214.947 366.31 216.887 350.325C218.215 350.276 219.838 350.182 221.722 350.012C227.117 349.526 234.674 348.413 243.579 345.918C261.416 340.919 284.653 330.368 306.635 308.264C328.233 286.546 338.781 267.355 343.877 253.189C346.419 246.122 347.583 240.362 348.101 236.234C348.36 234.172 348.457 232.522 348.485 231.324C348.499 230.726 348.495 230.241 348.486 229.874C348.482 229.691 348.476 229.537 348.47 229.414L348.461 229.252L348.457 229.187L348.455 229.16L348.454 229.147C348.454 229.141 348.453 229.135 340.141 229.726C331.829 230.316 331.828 230.31 331.828 230.305L331.827 230.294L331.826 230.275L331.824 230.244L331.823 230.231L331.825 230.29C331.828 230.395 331.831 230.613 331.823 230.939C331.808 231.591 331.751 232.676 331.565 234.158C331.193 237.117 330.305 241.678 328.194 247.547C324.564 257.641 317.254 271.775 302.484 288.373C299.614 283.636 296.664 279.268 293.918 275.203L293.913 275.195C292.514 273.123 291.168 271.131 289.914 269.209C284.347 260.68 280.119 252.944 278.244 243.513L261.898 246.764C264.01 257.386 268.346 266.079 273.211 273.995C257.409 264.034 243.374 256.357 225.427 247.838C285.95 223.989 328.499 213.548 400 207.2L399.745 190.579C381.734 189.536 365.081 188.228 348.493 186.125C348.491 185.986 348.489 185.84 348.487 185.689C348.463 184.155 348.376 181.982 348.134 179.271C347.651 173.853 346.546 166.261 344.067 157.314C339.101 139.397 328.616 116.04 306.636 93.9374C285.038 72.2191 265.947 61.6064 251.844 56.4767C244.808 53.9178 239.071 52.7445 234.956 52.2223C232.901 51.9614 231.256 51.8636 230.06 51.8357C229.463 51.8217 228.978 51.8252 228.612 51.8344C228.428 51.8391 228.274 51.8451 228.151 51.8512L227.988 51.86L227.923 51.8641L227.895 51.866L227.882 51.8669C227.876 51.8673 227.87 51.8677 228.467 60.18C229.064 68.4923 229.058 68.4927 229.053 68.4931L229.042 68.4938L229.022 68.4951L228.991 68.4971L228.977 68.4981L229.032 68.4965C229.134 68.4939 229.349 68.4909 229.671 68.4985C230.315 68.5135 231.389 68.5706 232.858 68.757C235.791 69.1293 240.319 70.0203 246.147 72.1403C256.189 75.7925 270.269 83.1567 286.811 98.059C282.067 100.961 277.695 103.947 273.63 106.724C271.568 108.132 269.584 109.486 267.672 110.749C259.189 116.346 251.509 120.589 242.152 122.47L245.438 138.811ZM219.208 333.498C219.535 333.472 219.874 333.444 220.225 333.412C224.752 333.004 231.291 332.052 239.082 329.869C252.708 326.05 270.169 318.468 287.48 303.385C255.216 281.341 236.818 270.966 200.98 254.949L183.248 247.025L201.209 239.634C249.099 219.926 285.153 207.877 327.58 199.924C312.044 197.363 296.111 193.967 278.858 189.332L283.181 173.236C300.385 177.857 316.226 181.208 331.745 183.716C331.7 182.858 331.633 181.866 331.534 180.751C331.127 176.192 330.18 169.609 328.006 161.766C324.21 148.07 316.681 130.536 301.727 113.153C279.84 145.549 269.524 164.052 253.607 200.066L245.668 218.027L238.266 199.839C218.712 151.791 206.742 115.596 198.833 73.0607C196.293 88.5936 192.929 104.526 188.348 121.771L172.24 117.491C177.059 99.3496 180.489 82.715 183.021 66.3809C182.103 66.4251 181.015 66.4959 179.775 66.6077C175.248 67.0158 168.709 67.9677 160.918 70.1512C147.292 73.9695 129.831 81.5522 112.52 96.6348C144.784 118.679 163.182 129.054 199.02 145.071L216.752 152.995L198.792 160.386C150.901 180.094 114.847 192.143 72.4201 200.096C87.9561 202.657 103.889 206.053 121.142 210.688L116.819 226.784C100.439 222.384 85.2944 219.136 70.4868 216.67C70.5306 217.436 70.5918 218.298 70.6766 219.249C71.083 223.808 72.0309 230.391 74.2045 238.234C78.0002 251.93 85.5293 269.464 100.484 286.847C122.37 254.451 132.686 235.948 148.604 199.934L156.542 181.973L163.944 200.161C183.498 248.209 195.469 284.404 203.377 326.939C205.918 311.406 209.282 295.474 213.863 278.229L229.971 282.509C225.163 300.605 221.738 317.203 219.208 333.498Z" fill="#C68F5C"/>
</svg>
